<mxfile host="app.diagrams.net" modified="2024-01-05T13:13:17.175Z" agent="Mozilla/5.0 (X11; Linux x86_64; rv:107.0) Gecko/20100101 Firefox/107.0" etag="3DFXX_tJUOXZw0FaTeN-" version="22.1.16" type="device">
  <diagram name="Page-1" id="tz5SLeF9hT5f3y39BwH8">
    <mxGraphModel dx="1434" dy="842" grid="1" gridSize="10" guides="1" tooltips="1" connect="1" arrows="1" fold="1" page="1" pageScale="1" pageWidth="850" pageHeight="1100" math="0" shadow="0">
      <root>
        <mxCell id="0" />
        <mxCell id="1" parent="0" />
        <mxCell id="trWwFmtepQNAlSAXFZ74-7" value="" style="group" vertex="1" connectable="0" parent="1">
          <mxGeometry x="850" y="110" width="540" height="380.00000000000006" as="geometry" />
        </mxCell>
        <mxCell id="trWwFmtepQNAlSAXFZ74-8" value="" style="verticalLabelPosition=bottom;html=1;verticalAlign=top;align=center;strokeColor=none;fillColor=#00BEF2;shape=mxgraph.azure.laptop;pointerEvents=1;" vertex="1" parent="trWwFmtepQNAlSAXFZ74-7">
          <mxGeometry x="-4" width="540" height="380.00000000000006" as="geometry" />
        </mxCell>
        <mxCell id="trWwFmtepQNAlSAXFZ74-9" value="&lt;div&gt;&lt;font style=&quot;font-size: 20px;&quot;&gt;Virtual machine&lt;/font&gt;&lt;/div&gt;" style="swimlane;whiteSpace=wrap;html=1;" vertex="1" parent="trWwFmtepQNAlSAXFZ74-7">
          <mxGeometry x="86" y="30.4" width="360" height="129.6" as="geometry" />
        </mxCell>
        <mxCell id="trWwFmtepQNAlSAXFZ74-13" value="&lt;div&gt;Linux or MacOS&lt;/div&gt;" style="vsdxID=12;fillColor=#0050ef;shape=stencil(nZBLDoAgDERP0z3SIyjew0SURgSD+Lu9kMZoXLhwN9O+tukAlrNpJg1SzDH4QW/URgNYgZTkjA4UkwJUgGXng+6DX1zLfmoymdXo17xh5zmRJ6Q42BWCfc2oJfdAr+Yv+AP9Cb7OJ3H/2JG1HNGz/84klThPVCc=);strokeColor=#001DBC;strokeWidth=3;labelBackgroundColor=none;rounded=0;html=1;whiteSpace=wrap;fontColor=#ffffff;fontSize=28;" vertex="1" parent="trWwFmtepQNAlSAXFZ74-7">
          <mxGeometry x="86" y="230" width="360" height="46.2" as="geometry" />
        </mxCell>
        <mxCell id="trWwFmtepQNAlSAXFZ74-10" value="" style="group" vertex="1" connectable="0" parent="trWwFmtepQNAlSAXFZ74-7">
          <mxGeometry x="101" y="60" width="330" height="36.2" as="geometry" />
        </mxCell>
        <mxCell id="trWwFmtepQNAlSAXFZ74-11" value="&lt;font style=&quot;font-size: 20px;&quot;&gt;&lt;b&gt;App&lt;/b&gt;&lt;/font&gt;" style="vsdxID=12;fillColor=#0050ef;shape=stencil(nZBLDoAgDERP0z3SIyjew0SURgSD+Lu9kMZoXLhwN9O+tukAlrNpJg1SzDH4QW/URgNYgZTkjA4UkwJUgGXng+6DX1zLfmoymdXo17xh5zmRJ6Q42BWCfc2oJfdAr+Yv+AP9Cb7OJ3H/2JG1HNGz/84klThPVCc=);strokeColor=#001DBC;strokeWidth=3;labelBackgroundColor=none;rounded=0;html=1;whiteSpace=wrap;fontColor=#ffffff;" vertex="1" parent="trWwFmtepQNAlSAXFZ74-10">
          <mxGeometry width="330" height="36.199999999999996" as="geometry" />
        </mxCell>
        <mxCell id="trWwFmtepQNAlSAXFZ74-14" value="&lt;div&gt;QEMU&lt;/div&gt;" style="vsdxID=12;fillColor=#0050ef;shape=stencil(nZBLDoAgDERP0z3SIyjew0SURgSD+Lu9kMZoXLhwN9O+tukAlrNpJg1SzDH4QW/URgNYgZTkjA4UkwJUgGXng+6DX1zLfmoymdXo17xh5zmRJ6Q42BWCfc2oJfdAr+Yv+AP9Cb7OJ3H/2JG1HNGz/84klThPVCc=);strokeColor=#001DBC;strokeWidth=3;labelBackgroundColor=none;rounded=0;html=1;whiteSpace=wrap;fontColor=#ffffff;fontSize=28;" vertex="1" parent="trWwFmtepQNAlSAXFZ74-7">
          <mxGeometry x="86" y="170" width="360" height="46.2" as="geometry" />
        </mxCell>
        <mxCell id="trWwFmtepQNAlSAXFZ74-15" value="&lt;div&gt;NixOS&lt;/div&gt;" style="vsdxID=12;fillColor=#0050ef;shape=stencil(nZBLDoAgDERP0z3SIyjew0SURgSD+Lu9kMZoXLhwN9O+tukAlrNpJg1SzDH4QW/URgNYgZTkjA4UkwJUgGXng+6DX1zLfmoymdXo17xh5zmRJ6Q42BWCfc2oJfdAr+Yv+AP9Cb7OJ3H/2JG1HNGz/84klThPVCc=);strokeColor=#001DBC;strokeWidth=3;labelBackgroundColor=none;rounded=0;html=1;whiteSpace=wrap;fontColor=#ffffff;fontSize=28;" vertex="1" parent="trWwFmtepQNAlSAXFZ74-7">
          <mxGeometry x="101" y="110" width="330" height="36.2" as="geometry" />
        </mxCell>
      </root>
    </mxGraphModel>
  </diagram>
</mxfile>
